<svg xmlns="http://www.w3.org/2000/svg" width="16.041" height="16.041" viewBox="0 0 16.041 16.041"><path id="Icon_awesome-phone-alt" fill="#135667" d="M15.583,11.335l-3.509-1.5a.752.752,0,0,0-.877.216l-1.554,1.9A11.613,11.613,0,0,1,4.092,6.4l1.9-1.554a.75.75,0,0,0,.216-.877L4.7.455A.757.757,0,0,0,3.841.019L.583.771A.752.752,0,0,0,0,1.5,14.536,14.536,0,0,0,14.537,16.041a.752.752,0,0,0,.733-.583l.752-3.258A.761.761,0,0,0,15.583,11.335Z" data-name="Icon awesome-phone-alt" transform="translate(0 0)"/></svg>