<svg xmlns="http://www.w3.org/2000/svg" width="20" height="15" viewBox="0 0 20 15"><path id="Icon_awesome-car" fill="#677598" d="M19.531,8.875H17.192l-.65-1.625A4.353,4.353,0,0,0,12.481,4.5H7.52A4.354,4.354,0,0,0,3.458,7.25l-.65,1.625H.469a.469.469,0,0,0-.455.582l.234.938A.468.468,0,0,0,.7,10.75h.784a2.483,2.483,0,0,0-.863,1.875V14.5a2.48,2.48,0,0,0,.625,1.638V18.25A1.25,1.25,0,0,0,2.5,19.5H3.75A1.25,1.25,0,0,0,5,18.25V17H15v1.25a1.25,1.25,0,0,0,1.25,1.25H17.5a1.25,1.25,0,0,0,1.25-1.25V16.138a2.478,2.478,0,0,0,.625-1.638V12.625a2.484,2.484,0,0,0-.862-1.875H19.3a.468.468,0,0,0,.455-.355l.234-.938a.469.469,0,0,0-.455-.582Zm-13.752-.7A1.875,1.875,0,0,1,7.52,7h4.961a1.875,1.875,0,0,1,1.741,1.179L15,10.125H5l.779-1.946ZM3.75,14.492A1.179,1.179,0,0,1,2.5,13.246,1.179,1.179,0,0,1,3.75,12a2.4,2.4,0,0,1,1.875,1.869C5.625,14.617,4.5,14.492,3.75,14.492Zm12.5,0c-.75,0-1.875.125-1.875-.623A2.4,2.4,0,0,1,16.25,12a1.179,1.179,0,0,1,1.25,1.246A1.179,1.179,0,0,1,16.25,14.492Z" data-name="Icon awesome-car" transform="translate(0 -4.5)"/></svg>