<svg xmlns="http://www.w3.org/2000/svg" width="35" height="35" viewBox="0 0 35 35">
  <path id="Icon_awesome-facebook-square" data-name="Icon awesome-facebook-square" d="M31.25,2.25H3.75A3.75,3.75,0,0,0,0,6V33.5a3.75,3.75,0,0,0,3.75,3.75H14.473v-11.9H9.551v-5.6h4.922V15.481c0-4.855,2.891-7.537,7.318-7.537a29.818,29.818,0,0,1,4.337.378v4.766H23.685c-2.407,0-3.158,1.494-3.158,3.026V19.75H25.9l-.859,5.6H20.527v11.9H31.25A3.75,3.75,0,0,0,35,33.5V6A3.75,3.75,0,0,0,31.25,2.25Z" transform="translate(0 -2.25)" fill="#fff"/>
</svg>
