<svg xmlns="http://www.w3.org/2000/svg" width="22" height="22" viewBox="0 0 22 22"><path id="Icon_material-public" fill="#5c6066" d="M14,3A11,11,0,1,0,25,14,11,11,0,0,0,14,3ZM12.9,22.723A8.787,8.787,0,0,1,5.2,14a8.93,8.93,0,0,1,.231-1.969L10.7,17.3v1.1a2.206,2.206,0,0,0,2.2,2.2Zm7.59-2.794A2.182,2.182,0,0,0,18.4,18.4H17.3V15.1A1.1,1.1,0,0,0,16.2,14H9.6V11.8h2.2a1.1,1.1,0,0,0,1.1-1.1V8.5h2.2a2.206,2.206,0,0,0,2.2-2.2V5.849a8.78,8.78,0,0,1,3.19,14.08Z" data-name="Icon material-public" transform="translate(-3 -3)"/></svg>