<svg xmlns="http://www.w3.org/2000/svg" width="23.888" height="21.233" viewBox="0 0 23.888 21.233">
  <path id="Icon_awesome-cart-arrow-down" data-name="Icon awesome-cart-arrow-down" d="M20.931,13.271H8.774L9.046,14.6H20.177a1,1,0,0,1,.971,1.216l-.229,1.007a2.323,2.323,0,1,1-2.637.431H9.587a2.322,2.322,0,1,1-2.78-.355L3.893,2.654H1a1,1,0,0,1-1-1V1A1,1,0,0,1,1,0H5.247a1,1,0,0,1,.975.8L6.6,2.654H22.892a1,1,0,0,1,.971,1.216L21.9,12.5A1,1,0,0,1,20.931,13.271ZM16.714,7.963H14.93V5.474a.5.5,0,0,0-.5-.5h-1a.5.5,0,0,0-.5.5V7.963H11.155a.5.5,0,0,0-.352.85l2.78,2.78a.5.5,0,0,0,.7,0l2.78-2.78A.5.5,0,0,0,16.714,7.963Z" fill="#5c6066"/>
</svg>
