<svg xmlns="http://www.w3.org/2000/svg" width="27" height="18.32" viewBox="0 0 27 18.32"><path id="Icon_material-people" fill="#5c6066" d="M19.909,15.351a3.8,3.8,0,0,0,3.67-3.926A3.8,3.8,0,0,0,19.909,7.5a3.8,3.8,0,0,0-3.682,3.926A3.8,3.8,0,0,0,19.909,15.351Zm-9.818,0a3.8,3.8,0,0,0,3.67-3.926A3.8,3.8,0,0,0,10.091,7.5a3.8,3.8,0,0,0-3.682,3.926A3.8,3.8,0,0,0,10.091,15.351Zm0,2.617c-2.86,0-8.591,1.531-8.591,4.58V25.82H18.682V22.548C18.682,19.5,12.95,17.968,10.091,17.968Zm9.818,0c-.356,0-.761.026-1.19.065a5.606,5.606,0,0,1,2.418,4.515V25.82H28.5V22.548C28.5,19.5,22.769,17.968,19.909,17.968Z" data-name="Icon material-people" transform="translate(-1.5 -7.5)"/></svg>