<svg xmlns="http://www.w3.org/2000/svg" width="32.633" height="32.633" viewBox="0 0 32.633 32.633">
  <path id="Icon_feather-phone-call" data-name="Icon feather-phone-call" d="M21.75,7.234A7.174,7.174,0,0,1,27.423,12.9M21.75,1.5A12.914,12.914,0,0,1,33.168,12.882M31.732,24.321v4.3A2.87,2.87,0,0,1,28.6,31.488a28.458,28.458,0,0,1-12.395-4.4,27.98,27.98,0,0,1-8.617-8.6A28.334,28.334,0,0,1,3.179,6.058,2.869,2.869,0,0,1,6.038,2.933h4.309A2.871,2.871,0,0,1,13.219,5.4a18.377,18.377,0,0,0,1.005,4.028,2.863,2.863,0,0,1-.646,3.025l-1.824,1.821a22.958,22.958,0,0,0,8.617,8.6L22.2,21.053a2.876,2.876,0,0,1,3.03-.645,18.47,18.47,0,0,0,4.036,1A2.869,2.869,0,0,1,31.732,24.321Z" transform="translate(-1.917 -0.12)" fill="none" stroke="#ffb32a" stroke-linecap="round" stroke-linejoin="round" stroke-width="2.5"/>
</svg>
